<mxfile host="Electron" agent="Mozilla/5.0 (Macintosh; Intel Mac OS X 10_15_7) AppleWebKit/537.36 (KHTML, like Gecko) draw.io/26.2.2 Chrome/134.0.6998.178 Electron/35.1.2 Safari/537.36" version="26.2.2">
  <diagram name="Page-1" id="-H_mtQnk-PTXWXPvYvuk">
    <mxGraphModel dx="2745" dy="1264" grid="1" gridSize="10" guides="1" tooltips="1" connect="1" arrows="1" fold="1" page="1" pageScale="1" pageWidth="1169" pageHeight="827" math="0" shadow="0">
      <root>
        <mxCell id="0" />
        <mxCell id="1" parent="0" />
        <mxCell id="1ZcwwXlKoj_4XfmJDvag-219" value="" style="whiteSpace=wrap;html=1;aspect=fixed;" vertex="1" parent="1">
          <mxGeometry x="330" y="2070" width="320" height="320" as="geometry" />
        </mxCell>
        <mxCell id="1ZcwwXlKoj_4XfmJDvag-103" value="pymongo-api *" style="rounded=1;whiteSpace=wrap;html=1;" vertex="1" parent="1">
          <mxGeometry x="150" y="1670" width="120" height="110" as="geometry" />
        </mxCell>
        <mxCell id="1ZcwwXlKoj_4XfmJDvag-102" value="pymongo-api *" style="rounded=1;whiteSpace=wrap;html=1;" vertex="1" parent="1">
          <mxGeometry x="160" y="1654" width="120" height="110" as="geometry" />
        </mxCell>
        <mxCell id="1ZcwwXlKoj_4XfmJDvag-11" value="До" style="rounded=0;whiteSpace=wrap;html=1;" vertex="1" parent="1">
          <mxGeometry x="330" y="140" width="500" height="300" as="geometry" />
        </mxCell>
        <mxCell id="zA23MoTUsTF4_91t8viU-2" value="MongoDB&amp;nbsp;&lt;div&gt;router&lt;/div&gt;" style="shape=cylinder3;whiteSpace=wrap;html=1;boundedLbl=1;backgroundOutline=1;size=15;" parent="1" vertex="1">
          <mxGeometry x="560" y="285" width="100" height="70" as="geometry" />
        </mxCell>
        <mxCell id="zA23MoTUsTF4_91t8viU-3" value="pymongo-api" style="rounded=1;whiteSpace=wrap;html=1;" parent="1" vertex="1">
          <mxGeometry x="360" y="290" width="120" height="60" as="geometry" />
        </mxCell>
        <mxCell id="zA23MoTUsTF4_91t8viU-4" style="edgeStyle=orthogonalEdgeStyle;rounded=0;orthogonalLoop=1;jettySize=auto;html=1;exitX=1;exitY=0.5;exitDx=0;exitDy=0;entryX=0;entryY=0.5;entryDx=0;entryDy=0;entryPerimeter=0;" parent="1" source="zA23MoTUsTF4_91t8viU-3" target="zA23MoTUsTF4_91t8viU-2" edge="1">
          <mxGeometry relative="1" as="geometry" />
        </mxCell>
        <mxCell id="1ZcwwXlKoj_4XfmJDvag-1" value="MongoDB&amp;nbsp;&lt;div&gt;shard1&lt;/div&gt;" style="shape=cylinder3;whiteSpace=wrap;html=1;boundedLbl=1;backgroundOutline=1;size=15;" vertex="1" parent="1">
          <mxGeometry x="690" y="220" width="100" height="70" as="geometry" />
        </mxCell>
        <mxCell id="1ZcwwXlKoj_4XfmJDvag-2" value="MongoDB&amp;nbsp;&lt;div&gt;shard2&lt;/div&gt;" style="shape=cylinder3;whiteSpace=wrap;html=1;boundedLbl=1;backgroundOutline=1;size=15;" vertex="1" parent="1">
          <mxGeometry x="690" y="344" width="100" height="70" as="geometry" />
        </mxCell>
        <mxCell id="1ZcwwXlKoj_4XfmJDvag-3" value="MongoDB&amp;nbsp;&lt;div&gt;config&lt;/div&gt;" style="shape=cylinder3;whiteSpace=wrap;html=1;boundedLbl=1;backgroundOutline=1;size=15;" vertex="1" parent="1">
          <mxGeometry x="560" y="150" width="100" height="70" as="geometry" />
        </mxCell>
        <mxCell id="1ZcwwXlKoj_4XfmJDvag-4" value="" style="endArrow=classic;html=1;rounded=0;exitX=1;exitY=0.5;exitDx=0;exitDy=0;exitPerimeter=0;entryX=0.084;entryY=0.955;entryDx=0;entryDy=0;entryPerimeter=0;" edge="1" parent="1" source="zA23MoTUsTF4_91t8viU-2" target="1ZcwwXlKoj_4XfmJDvag-1">
          <mxGeometry width="50" height="50" relative="1" as="geometry">
            <mxPoint x="580" y="280" as="sourcePoint" />
            <mxPoint x="630" y="230" as="targetPoint" />
          </mxGeometry>
        </mxCell>
        <mxCell id="1ZcwwXlKoj_4XfmJDvag-5" value="" style="endArrow=classic;html=1;rounded=0;exitX=1;exitY=0.5;exitDx=0;exitDy=0;exitPerimeter=0;entryX=0.07;entryY=0.069;entryDx=0;entryDy=0;entryPerimeter=0;" edge="1" parent="1" source="zA23MoTUsTF4_91t8viU-2" target="1ZcwwXlKoj_4XfmJDvag-2">
          <mxGeometry width="50" height="50" relative="1" as="geometry">
            <mxPoint x="670" y="330" as="sourcePoint" />
            <mxPoint x="708" y="297" as="targetPoint" />
          </mxGeometry>
        </mxCell>
        <mxCell id="1ZcwwXlKoj_4XfmJDvag-6" value="" style="endArrow=none;dashed=1;html=1;rounded=0;exitX=0.458;exitY=0.997;exitDx=0;exitDy=0;exitPerimeter=0;entryX=0.462;entryY=-0.008;entryDx=0;entryDy=0;entryPerimeter=0;" edge="1" parent="1" source="1ZcwwXlKoj_4XfmJDvag-3" target="zA23MoTUsTF4_91t8viU-2">
          <mxGeometry width="50" height="50" relative="1" as="geometry">
            <mxPoint x="580" y="280" as="sourcePoint" />
            <mxPoint x="630" y="230" as="targetPoint" />
          </mxGeometry>
        </mxCell>
        <mxCell id="1ZcwwXlKoj_4XfmJDvag-7" value="" style="endArrow=none;dashed=1;html=1;rounded=0;exitX=0.467;exitY=1.018;exitDx=0;exitDy=0;exitPerimeter=0;entryX=0;entryY=0;entryDx=0;entryDy=15;entryPerimeter=0;" edge="1" parent="1" source="1ZcwwXlKoj_4XfmJDvag-3" target="1ZcwwXlKoj_4XfmJDvag-1">
          <mxGeometry width="50" height="50" relative="1" as="geometry">
            <mxPoint x="616" y="220" as="sourcePoint" />
            <mxPoint x="616" y="294" as="targetPoint" />
          </mxGeometry>
        </mxCell>
        <mxCell id="1ZcwwXlKoj_4XfmJDvag-8" value="" style="endArrow=none;dashed=1;html=1;rounded=0;entryX=0.397;entryY=-0.001;entryDx=0;entryDy=0;entryPerimeter=0;exitX=0.472;exitY=0.99;exitDx=0;exitDy=0;exitPerimeter=0;" edge="1" parent="1" source="1ZcwwXlKoj_4XfmJDvag-3" target="1ZcwwXlKoj_4XfmJDvag-2">
          <mxGeometry width="50" height="50" relative="1" as="geometry">
            <mxPoint x="610" y="210" as="sourcePoint" />
            <mxPoint x="626" y="304" as="targetPoint" />
          </mxGeometry>
        </mxCell>
        <mxCell id="1ZcwwXlKoj_4XfmJDvag-9" value="&lt;h1 style=&quot;margin-top: 0px;&quot;&gt;&lt;span style=&quot;color: rgba(0, 0, 0, 0.85); font-family: &amp;quot;YS Text&amp;quot;, sans-serif; font-size: 18px; font-weight: 400; white-space-collapse: preserve-breaks; background-color: rgb(255, 255, 255);&quot;&gt;Задание 2.&lt;/span&gt;&lt;/h1&gt;&lt;p&gt;&lt;span style=&quot;color: rgba(0, 0, 0, 0.85); font-family: &amp;quot;YS Text&amp;quot;, sans-serif; white-space-collapse: preserve-breaks; background-color: rgb(255, 255, 255);&quot;&gt;&lt;font style=&quot;font-size: 12px;&quot;&gt;Шардирование в MongoDB для&amp;nbsp; повышения производительности&lt;/font&gt;&lt;/span&gt;&lt;span style=&quot;color: rgba(0, 0, 0, 0.85); font-family: &amp;quot;YS Text&amp;quot;, sans-serif; font-size: 18px; white-space-collapse: preserve-breaks; background-color: rgb(255, 255, 255);&quot;&gt;.&lt;/span&gt;&lt;/p&gt;" style="text;html=1;whiteSpace=wrap;overflow=hidden;rounded=0;" vertex="1" parent="1">
          <mxGeometry x="350" y="30" width="220" height="110" as="geometry" />
        </mxCell>
        <mxCell id="1ZcwwXlKoj_4XfmJDvag-12" value="&lt;font style=&quot;font-size: 18px;&quot;&gt;Docker&lt;/font&gt;" style="text;html=1;align=center;verticalAlign=middle;whiteSpace=wrap;rounded=0;" vertex="1" parent="1">
          <mxGeometry x="340" y="140" width="70" height="30" as="geometry" />
        </mxCell>
        <mxCell id="1ZcwwXlKoj_4XfmJDvag-26" value="" style="rounded=0;whiteSpace=wrap;html=1;" vertex="1" parent="1">
          <mxGeometry x="330" y="600" width="790" height="300" as="geometry" />
        </mxCell>
        <mxCell id="1ZcwwXlKoj_4XfmJDvag-27" value="MongoDB&amp;nbsp;&lt;div&gt;router&lt;/div&gt;" style="shape=cylinder3;whiteSpace=wrap;html=1;boundedLbl=1;backgroundOutline=1;size=15;" vertex="1" parent="1">
          <mxGeometry x="560" y="745" width="100" height="70" as="geometry" />
        </mxCell>
        <mxCell id="1ZcwwXlKoj_4XfmJDvag-28" value="pymongo-api" style="rounded=1;whiteSpace=wrap;html=1;" vertex="1" parent="1">
          <mxGeometry x="360" y="750" width="120" height="60" as="geometry" />
        </mxCell>
        <mxCell id="1ZcwwXlKoj_4XfmJDvag-29" style="edgeStyle=orthogonalEdgeStyle;rounded=0;orthogonalLoop=1;jettySize=auto;html=1;exitX=1;exitY=0.5;exitDx=0;exitDy=0;entryX=0;entryY=0.5;entryDx=0;entryDy=0;entryPerimeter=0;" edge="1" parent="1" source="1ZcwwXlKoj_4XfmJDvag-28" target="1ZcwwXlKoj_4XfmJDvag-27">
          <mxGeometry relative="1" as="geometry" />
        </mxCell>
        <mxCell id="1ZcwwXlKoj_4XfmJDvag-32" value="MongoDB&amp;nbsp;&lt;div&gt;config&lt;/div&gt;" style="shape=cylinder3;whiteSpace=wrap;html=1;boundedLbl=1;backgroundOutline=1;size=15;" vertex="1" parent="1">
          <mxGeometry x="560" y="610" width="100" height="70" as="geometry" />
        </mxCell>
        <mxCell id="1ZcwwXlKoj_4XfmJDvag-33" value="" style="endArrow=classic;html=1;rounded=0;exitX=1;exitY=0.5;exitDx=0;exitDy=0;exitPerimeter=0;entryX=0;entryY=0.75;entryDx=0;entryDy=0;" edge="1" parent="1" source="1ZcwwXlKoj_4XfmJDvag-27" target="1ZcwwXlKoj_4XfmJDvag-44">
          <mxGeometry width="50" height="50" relative="1" as="geometry">
            <mxPoint x="580" y="740" as="sourcePoint" />
            <mxPoint x="720" y="760" as="targetPoint" />
          </mxGeometry>
        </mxCell>
        <mxCell id="1ZcwwXlKoj_4XfmJDvag-34" value="" style="endArrow=classic;html=1;rounded=0;exitX=1;exitY=0.5;exitDx=0;exitDy=0;exitPerimeter=0;entryX=0;entryY=0.25;entryDx=0;entryDy=0;" edge="1" parent="1" source="1ZcwwXlKoj_4XfmJDvag-27" target="1ZcwwXlKoj_4XfmJDvag-47">
          <mxGeometry width="50" height="50" relative="1" as="geometry">
            <mxPoint x="670" y="790" as="sourcePoint" />
            <mxPoint x="708" y="757" as="targetPoint" />
          </mxGeometry>
        </mxCell>
        <mxCell id="1ZcwwXlKoj_4XfmJDvag-35" value="" style="endArrow=none;dashed=1;html=1;rounded=0;exitX=0.458;exitY=0.997;exitDx=0;exitDy=0;exitPerimeter=0;entryX=0.462;entryY=-0.008;entryDx=0;entryDy=0;entryPerimeter=0;" edge="1" parent="1" source="1ZcwwXlKoj_4XfmJDvag-32" target="1ZcwwXlKoj_4XfmJDvag-27">
          <mxGeometry width="50" height="50" relative="1" as="geometry">
            <mxPoint x="580" y="740" as="sourcePoint" />
            <mxPoint x="630" y="690" as="targetPoint" />
          </mxGeometry>
        </mxCell>
        <mxCell id="1ZcwwXlKoj_4XfmJDvag-36" value="" style="endArrow=none;dashed=1;html=1;rounded=0;exitX=0.467;exitY=1.018;exitDx=0;exitDy=0;exitPerimeter=0;entryX=-0.003;entryY=0.341;entryDx=0;entryDy=0;entryPerimeter=0;" edge="1" parent="1" source="1ZcwwXlKoj_4XfmJDvag-32" target="1ZcwwXlKoj_4XfmJDvag-44">
          <mxGeometry width="50" height="50" relative="1" as="geometry">
            <mxPoint x="616" y="680" as="sourcePoint" />
            <mxPoint x="616" y="754" as="targetPoint" />
          </mxGeometry>
        </mxCell>
        <mxCell id="1ZcwwXlKoj_4XfmJDvag-37" value="" style="endArrow=none;dashed=1;html=1;rounded=0;entryX=0;entryY=0;entryDx=0;entryDy=0;exitX=0.472;exitY=0.99;exitDx=0;exitDy=0;exitPerimeter=0;" edge="1" parent="1" source="1ZcwwXlKoj_4XfmJDvag-32" target="1ZcwwXlKoj_4XfmJDvag-47">
          <mxGeometry width="50" height="50" relative="1" as="geometry">
            <mxPoint x="610" y="670" as="sourcePoint" />
            <mxPoint x="626" y="764" as="targetPoint" />
          </mxGeometry>
        </mxCell>
        <mxCell id="1ZcwwXlKoj_4XfmJDvag-38" value="&lt;h1 style=&quot;margin-top: 0px;&quot;&gt;&lt;span style=&quot;color: rgba(0, 0, 0, 0.85); font-family: &amp;quot;YS Text&amp;quot;, sans-serif; font-size: 18px; font-weight: 400; white-space-collapse: preserve-breaks; background-color: rgb(255, 255, 255);&quot;&gt;Задание 3.&lt;/span&gt;&lt;/h1&gt;&lt;p&gt;&lt;span style=&quot;color: rgba(0, 0, 0, 0.85); font-family: &amp;quot;YS Text&amp;quot;, sans-serif; white-space-collapse: preserve-breaks; background-color: rgb(255, 255, 255);&quot;&gt;&lt;font style=&quot;font-size: 12px;&quot;&gt;Репликация MongoDB для повышения отказоустойчивости.&lt;/font&gt;&lt;/span&gt;&lt;/p&gt;" style="text;html=1;whiteSpace=wrap;overflow=hidden;rounded=0;" vertex="1" parent="1">
          <mxGeometry x="350" y="510" width="360" height="80" as="geometry" />
        </mxCell>
        <mxCell id="1ZcwwXlKoj_4XfmJDvag-39" value="&lt;font style=&quot;font-size: 18px;&quot;&gt;Docker&lt;/font&gt;" style="text;html=1;align=center;verticalAlign=middle;whiteSpace=wrap;rounded=0;" vertex="1" parent="1">
          <mxGeometry x="340" y="600" width="70" height="30" as="geometry" />
        </mxCell>
        <mxCell id="1ZcwwXlKoj_4XfmJDvag-44" value="" style="rounded=1;whiteSpace=wrap;html=1;" vertex="1" parent="1">
          <mxGeometry x="720" y="650" width="380" height="110" as="geometry" />
        </mxCell>
        <mxCell id="1ZcwwXlKoj_4XfmJDvag-30" value="MongoDB&amp;nbsp;&lt;div&gt;shard1-1&lt;/div&gt;" style="shape=cylinder3;whiteSpace=wrap;html=1;boundedLbl=1;backgroundOutline=1;size=15;" vertex="1" parent="1">
          <mxGeometry x="760" y="675" width="100" height="70" as="geometry" />
        </mxCell>
        <mxCell id="1ZcwwXlKoj_4XfmJDvag-40" value="MongoDB&amp;nbsp;&lt;div&gt;shard1-2&lt;/div&gt;" style="shape=cylinder3;whiteSpace=wrap;html=1;boundedLbl=1;backgroundOutline=1;size=15;" vertex="1" parent="1">
          <mxGeometry x="870" y="675" width="100" height="70" as="geometry" />
        </mxCell>
        <mxCell id="1ZcwwXlKoj_4XfmJDvag-41" value="MongoDB&amp;nbsp;&lt;div&gt;shard1-3&lt;/div&gt;" style="shape=cylinder3;whiteSpace=wrap;html=1;boundedLbl=1;backgroundOutline=1;size=15;" vertex="1" parent="1">
          <mxGeometry x="980" y="675" width="100" height="70" as="geometry" />
        </mxCell>
        <mxCell id="1ZcwwXlKoj_4XfmJDvag-47" value="" style="rounded=1;whiteSpace=wrap;html=1;" vertex="1" parent="1">
          <mxGeometry x="720" y="780" width="380" height="110" as="geometry" />
        </mxCell>
        <mxCell id="1ZcwwXlKoj_4XfmJDvag-31" value="MongoDB&amp;nbsp;&lt;div&gt;shard2-1&lt;/div&gt;" style="shape=cylinder3;whiteSpace=wrap;html=1;boundedLbl=1;backgroundOutline=1;size=15;" vertex="1" parent="1">
          <mxGeometry x="760" y="804" width="100" height="70" as="geometry" />
        </mxCell>
        <mxCell id="1ZcwwXlKoj_4XfmJDvag-42" value="MongoDB&amp;nbsp;&lt;div&gt;shard2-2&lt;/div&gt;" style="shape=cylinder3;whiteSpace=wrap;html=1;boundedLbl=1;backgroundOutline=1;size=15;" vertex="1" parent="1">
          <mxGeometry x="870" y="804" width="100" height="70" as="geometry" />
        </mxCell>
        <mxCell id="1ZcwwXlKoj_4XfmJDvag-43" value="MongoDB&amp;nbsp;&lt;div&gt;shard2-3&lt;/div&gt;" style="shape=cylinder3;whiteSpace=wrap;html=1;boundedLbl=1;backgroundOutline=1;size=15;" vertex="1" parent="1">
          <mxGeometry x="980" y="804" width="100" height="70" as="geometry" />
        </mxCell>
        <mxCell id="1ZcwwXlKoj_4XfmJDvag-48" value="Shard 1" style="text;html=1;align=center;verticalAlign=middle;whiteSpace=wrap;rounded=0;" vertex="1" parent="1">
          <mxGeometry x="720" y="645" width="60" height="30" as="geometry" />
        </mxCell>
        <mxCell id="1ZcwwXlKoj_4XfmJDvag-49" value="Shard 2" style="text;html=1;align=center;verticalAlign=middle;whiteSpace=wrap;rounded=0;" vertex="1" parent="1">
          <mxGeometry x="720" y="780" width="60" height="30" as="geometry" />
        </mxCell>
        <mxCell id="1ZcwwXlKoj_4XfmJDvag-50" value="" style="rounded=0;whiteSpace=wrap;html=1;" vertex="1" parent="1">
          <mxGeometry x="330" y="1020" width="790" height="300" as="geometry" />
        </mxCell>
        <mxCell id="1ZcwwXlKoj_4XfmJDvag-51" value="MongoDB&amp;nbsp;&lt;div&gt;router&lt;/div&gt;" style="shape=cylinder3;whiteSpace=wrap;html=1;boundedLbl=1;backgroundOutline=1;size=15;" vertex="1" parent="1">
          <mxGeometry x="560" y="1165" width="100" height="70" as="geometry" />
        </mxCell>
        <mxCell id="1ZcwwXlKoj_4XfmJDvag-52" value="pymongo-api *" style="rounded=1;whiteSpace=wrap;html=1;" vertex="1" parent="1">
          <mxGeometry x="170" y="1145" width="120" height="110" as="geometry" />
        </mxCell>
        <mxCell id="1ZcwwXlKoj_4XfmJDvag-53" style="edgeStyle=orthogonalEdgeStyle;rounded=0;orthogonalLoop=1;jettySize=auto;html=1;exitX=1;exitY=0.5;exitDx=0;exitDy=0;entryX=0;entryY=0.5;entryDx=0;entryDy=0;entryPerimeter=0;" edge="1" parent="1" source="1ZcwwXlKoj_4XfmJDvag-52" target="1ZcwwXlKoj_4XfmJDvag-51">
          <mxGeometry relative="1" as="geometry" />
        </mxCell>
        <mxCell id="1ZcwwXlKoj_4XfmJDvag-54" value="MongoDB&amp;nbsp;&lt;div&gt;config&lt;/div&gt;" style="shape=cylinder3;whiteSpace=wrap;html=1;boundedLbl=1;backgroundOutline=1;size=15;" vertex="1" parent="1">
          <mxGeometry x="560" y="1030" width="100" height="70" as="geometry" />
        </mxCell>
        <mxCell id="1ZcwwXlKoj_4XfmJDvag-55" value="" style="endArrow=classic;html=1;rounded=0;exitX=1;exitY=0.5;exitDx=0;exitDy=0;exitPerimeter=0;entryX=0;entryY=0.75;entryDx=0;entryDy=0;" edge="1" parent="1" source="1ZcwwXlKoj_4XfmJDvag-51" target="1ZcwwXlKoj_4XfmJDvag-62">
          <mxGeometry width="50" height="50" relative="1" as="geometry">
            <mxPoint x="580" y="1160" as="sourcePoint" />
            <mxPoint x="720" y="1180" as="targetPoint" />
          </mxGeometry>
        </mxCell>
        <mxCell id="1ZcwwXlKoj_4XfmJDvag-56" value="" style="endArrow=classic;html=1;rounded=0;exitX=1;exitY=0.5;exitDx=0;exitDy=0;exitPerimeter=0;entryX=0;entryY=0.25;entryDx=0;entryDy=0;" edge="1" parent="1" source="1ZcwwXlKoj_4XfmJDvag-51" target="1ZcwwXlKoj_4XfmJDvag-66">
          <mxGeometry width="50" height="50" relative="1" as="geometry">
            <mxPoint x="670" y="1210" as="sourcePoint" />
            <mxPoint x="708" y="1177" as="targetPoint" />
          </mxGeometry>
        </mxCell>
        <mxCell id="1ZcwwXlKoj_4XfmJDvag-57" value="" style="endArrow=none;dashed=1;html=1;rounded=0;exitX=0.458;exitY=0.997;exitDx=0;exitDy=0;exitPerimeter=0;entryX=0.462;entryY=-0.008;entryDx=0;entryDy=0;entryPerimeter=0;" edge="1" parent="1" source="1ZcwwXlKoj_4XfmJDvag-54" target="1ZcwwXlKoj_4XfmJDvag-51">
          <mxGeometry width="50" height="50" relative="1" as="geometry">
            <mxPoint x="580" y="1160" as="sourcePoint" />
            <mxPoint x="630" y="1110" as="targetPoint" />
          </mxGeometry>
        </mxCell>
        <mxCell id="1ZcwwXlKoj_4XfmJDvag-58" value="" style="endArrow=none;dashed=1;html=1;rounded=0;exitX=0.467;exitY=1.018;exitDx=0;exitDy=0;exitPerimeter=0;entryX=-0.003;entryY=0.341;entryDx=0;entryDy=0;entryPerimeter=0;" edge="1" parent="1" source="1ZcwwXlKoj_4XfmJDvag-54" target="1ZcwwXlKoj_4XfmJDvag-62">
          <mxGeometry width="50" height="50" relative="1" as="geometry">
            <mxPoint x="616" y="1100" as="sourcePoint" />
            <mxPoint x="616" y="1174" as="targetPoint" />
          </mxGeometry>
        </mxCell>
        <mxCell id="1ZcwwXlKoj_4XfmJDvag-59" value="" style="endArrow=none;dashed=1;html=1;rounded=0;entryX=0;entryY=0;entryDx=0;entryDy=0;exitX=0.472;exitY=0.99;exitDx=0;exitDy=0;exitPerimeter=0;" edge="1" parent="1" source="1ZcwwXlKoj_4XfmJDvag-54" target="1ZcwwXlKoj_4XfmJDvag-66">
          <mxGeometry width="50" height="50" relative="1" as="geometry">
            <mxPoint x="610" y="1090" as="sourcePoint" />
            <mxPoint x="626" y="1184" as="targetPoint" />
          </mxGeometry>
        </mxCell>
        <mxCell id="1ZcwwXlKoj_4XfmJDvag-60" value="&lt;h1 style=&quot;margin-top: 0px;&quot;&gt;&lt;span style=&quot;color: rgba(0, 0, 0, 0.85); font-family: &amp;quot;YS Text&amp;quot;, sans-serif; font-size: 18px; font-weight: 400; white-space-collapse: preserve-breaks; background-color: rgb(255, 255, 255);&quot;&gt;Задание 4.&lt;/span&gt;&lt;/h1&gt;&lt;p&gt;&lt;font style=&quot;color: rgb(10, 10, 10);&quot; face=&quot;YS Text, sans-serif&quot;&gt;&lt;span style=&quot;white-space-collapse: preserve-breaks; background-color: rgb(255, 255, 255);&quot;&gt;Кеширование&amp;nbsp; для большего повышения производительности&lt;/span&gt;&lt;/font&gt;&lt;/p&gt;" style="text;html=1;whiteSpace=wrap;overflow=hidden;rounded=0;" vertex="1" parent="1">
          <mxGeometry x="350" y="930" width="360" height="80" as="geometry" />
        </mxCell>
        <mxCell id="1ZcwwXlKoj_4XfmJDvag-61" value="&lt;font style=&quot;font-size: 18px;&quot;&gt;Docker&lt;/font&gt;" style="text;html=1;align=center;verticalAlign=middle;whiteSpace=wrap;rounded=0;" vertex="1" parent="1">
          <mxGeometry x="340" y="1020" width="70" height="30" as="geometry" />
        </mxCell>
        <mxCell id="1ZcwwXlKoj_4XfmJDvag-62" value="" style="rounded=1;whiteSpace=wrap;html=1;" vertex="1" parent="1">
          <mxGeometry x="720" y="1070" width="380" height="110" as="geometry" />
        </mxCell>
        <mxCell id="1ZcwwXlKoj_4XfmJDvag-63" value="MongoDB&amp;nbsp;&lt;div&gt;shard1-1&lt;/div&gt;" style="shape=cylinder3;whiteSpace=wrap;html=1;boundedLbl=1;backgroundOutline=1;size=15;" vertex="1" parent="1">
          <mxGeometry x="760" y="1095" width="100" height="70" as="geometry" />
        </mxCell>
        <mxCell id="1ZcwwXlKoj_4XfmJDvag-64" value="MongoDB&amp;nbsp;&lt;div&gt;shard1-2&lt;/div&gt;" style="shape=cylinder3;whiteSpace=wrap;html=1;boundedLbl=1;backgroundOutline=1;size=15;" vertex="1" parent="1">
          <mxGeometry x="870" y="1095" width="100" height="70" as="geometry" />
        </mxCell>
        <mxCell id="1ZcwwXlKoj_4XfmJDvag-65" value="MongoDB&amp;nbsp;&lt;div&gt;shard1-3&lt;/div&gt;" style="shape=cylinder3;whiteSpace=wrap;html=1;boundedLbl=1;backgroundOutline=1;size=15;" vertex="1" parent="1">
          <mxGeometry x="980" y="1095" width="100" height="70" as="geometry" />
        </mxCell>
        <mxCell id="1ZcwwXlKoj_4XfmJDvag-66" value="" style="rounded=1;whiteSpace=wrap;html=1;" vertex="1" parent="1">
          <mxGeometry x="720" y="1200" width="380" height="110" as="geometry" />
        </mxCell>
        <mxCell id="1ZcwwXlKoj_4XfmJDvag-67" value="MongoDB&amp;nbsp;&lt;div&gt;shard2-1&lt;/div&gt;" style="shape=cylinder3;whiteSpace=wrap;html=1;boundedLbl=1;backgroundOutline=1;size=15;" vertex="1" parent="1">
          <mxGeometry x="760" y="1224" width="100" height="70" as="geometry" />
        </mxCell>
        <mxCell id="1ZcwwXlKoj_4XfmJDvag-68" value="MongoDB&amp;nbsp;&lt;div&gt;shard2-2&lt;/div&gt;" style="shape=cylinder3;whiteSpace=wrap;html=1;boundedLbl=1;backgroundOutline=1;size=15;" vertex="1" parent="1">
          <mxGeometry x="870" y="1224" width="100" height="70" as="geometry" />
        </mxCell>
        <mxCell id="1ZcwwXlKoj_4XfmJDvag-69" value="MongoDB&amp;nbsp;&lt;div&gt;shard2-3&lt;/div&gt;" style="shape=cylinder3;whiteSpace=wrap;html=1;boundedLbl=1;backgroundOutline=1;size=15;" vertex="1" parent="1">
          <mxGeometry x="980" y="1224" width="100" height="70" as="geometry" />
        </mxCell>
        <mxCell id="1ZcwwXlKoj_4XfmJDvag-70" value="Shard 1" style="text;html=1;align=center;verticalAlign=middle;whiteSpace=wrap;rounded=0;" vertex="1" parent="1">
          <mxGeometry x="720" y="1065" width="60" height="30" as="geometry" />
        </mxCell>
        <mxCell id="1ZcwwXlKoj_4XfmJDvag-71" value="Shard 2" style="text;html=1;align=center;verticalAlign=middle;whiteSpace=wrap;rounded=0;" vertex="1" parent="1">
          <mxGeometry x="720" y="1200" width="60" height="30" as="geometry" />
        </mxCell>
        <mxCell id="1ZcwwXlKoj_4XfmJDvag-72" value="Redis" style="shape=cylinder3;whiteSpace=wrap;html=1;boundedLbl=1;backgroundOutline=1;size=15;" vertex="1" parent="1">
          <mxGeometry x="420" y="1100" width="100" height="70" as="geometry" />
        </mxCell>
        <mxCell id="1ZcwwXlKoj_4XfmJDvag-73" value="@Cash" style="rounded=1;whiteSpace=wrap;html=1;" vertex="1" parent="1">
          <mxGeometry x="220" y="1150" width="60" height="40" as="geometry" />
        </mxCell>
        <mxCell id="1ZcwwXlKoj_4XfmJDvag-74" style="edgeStyle=orthogonalEdgeStyle;rounded=0;orthogonalLoop=1;jettySize=auto;html=1;exitX=1;exitY=0.5;exitDx=0;exitDy=0;" edge="1" parent="1" source="1ZcwwXlKoj_4XfmJDvag-73" target="1ZcwwXlKoj_4XfmJDvag-72">
          <mxGeometry relative="1" as="geometry">
            <mxPoint x="260" y="1190" as="sourcePoint" />
            <mxPoint x="530" y="1190" as="targetPoint" />
            <Array as="points" />
          </mxGeometry>
        </mxCell>
        <mxCell id="1ZcwwXlKoj_4XfmJDvag-75" value="* - в связи с несовместимостью готового образа pytmongo-api c конфигурацией компьютера, pytmongo-api&amp;nbsp; пересобран и запущен вне контейнера&amp;nbsp;&amp;nbsp;" style="text;html=1;align=left;verticalAlign=middle;whiteSpace=wrap;rounded=0;" vertex="1" parent="1">
          <mxGeometry x="330" y="1350" width="790" height="40" as="geometry" />
        </mxCell>
        <mxCell id="1ZcwwXlKoj_4XfmJDvag-76" value="" style="rounded=0;whiteSpace=wrap;html=1;" vertex="1" parent="1">
          <mxGeometry x="330" y="1520" width="790" height="300" as="geometry" />
        </mxCell>
        <mxCell id="1ZcwwXlKoj_4XfmJDvag-77" value="MongoDB&amp;nbsp;&lt;div&gt;router&lt;/div&gt;" style="shape=cylinder3;whiteSpace=wrap;html=1;boundedLbl=1;backgroundOutline=1;size=15;" vertex="1" parent="1">
          <mxGeometry x="560" y="1665" width="100" height="70" as="geometry" />
        </mxCell>
        <mxCell id="1ZcwwXlKoj_4XfmJDvag-78" value="pymongo-api *" style="rounded=1;whiteSpace=wrap;html=1;" vertex="1" parent="1">
          <mxGeometry x="170" y="1645" width="120" height="110" as="geometry" />
        </mxCell>
        <mxCell id="1ZcwwXlKoj_4XfmJDvag-79" style="edgeStyle=orthogonalEdgeStyle;rounded=0;orthogonalLoop=1;jettySize=auto;html=1;exitX=1;exitY=0.5;exitDx=0;exitDy=0;entryX=0;entryY=0.5;entryDx=0;entryDy=0;entryPerimeter=0;" edge="1" parent="1" source="1ZcwwXlKoj_4XfmJDvag-78" target="1ZcwwXlKoj_4XfmJDvag-77">
          <mxGeometry relative="1" as="geometry" />
        </mxCell>
        <mxCell id="1ZcwwXlKoj_4XfmJDvag-80" value="MongoDB&amp;nbsp;&lt;div&gt;config&lt;/div&gt;" style="shape=cylinder3;whiteSpace=wrap;html=1;boundedLbl=1;backgroundOutline=1;size=15;" vertex="1" parent="1">
          <mxGeometry x="560" y="1530" width="100" height="70" as="geometry" />
        </mxCell>
        <mxCell id="1ZcwwXlKoj_4XfmJDvag-81" value="" style="endArrow=classic;html=1;rounded=0;exitX=1;exitY=0.5;exitDx=0;exitDy=0;exitPerimeter=0;entryX=0;entryY=0.75;entryDx=0;entryDy=0;" edge="1" parent="1" source="1ZcwwXlKoj_4XfmJDvag-77" target="1ZcwwXlKoj_4XfmJDvag-87">
          <mxGeometry width="50" height="50" relative="1" as="geometry">
            <mxPoint x="580" y="1660" as="sourcePoint" />
            <mxPoint x="720" y="1680" as="targetPoint" />
          </mxGeometry>
        </mxCell>
        <mxCell id="1ZcwwXlKoj_4XfmJDvag-82" value="" style="endArrow=classic;html=1;rounded=0;exitX=1;exitY=0.5;exitDx=0;exitDy=0;exitPerimeter=0;entryX=0;entryY=0.25;entryDx=0;entryDy=0;" edge="1" parent="1" source="1ZcwwXlKoj_4XfmJDvag-77" target="1ZcwwXlKoj_4XfmJDvag-91">
          <mxGeometry width="50" height="50" relative="1" as="geometry">
            <mxPoint x="670" y="1710" as="sourcePoint" />
            <mxPoint x="708" y="1677" as="targetPoint" />
          </mxGeometry>
        </mxCell>
        <mxCell id="1ZcwwXlKoj_4XfmJDvag-83" value="" style="endArrow=none;dashed=1;html=1;rounded=0;exitX=0.458;exitY=0.997;exitDx=0;exitDy=0;exitPerimeter=0;entryX=0.462;entryY=-0.008;entryDx=0;entryDy=0;entryPerimeter=0;" edge="1" parent="1" source="1ZcwwXlKoj_4XfmJDvag-80" target="1ZcwwXlKoj_4XfmJDvag-77">
          <mxGeometry width="50" height="50" relative="1" as="geometry">
            <mxPoint x="580" y="1660" as="sourcePoint" />
            <mxPoint x="630" y="1610" as="targetPoint" />
          </mxGeometry>
        </mxCell>
        <mxCell id="1ZcwwXlKoj_4XfmJDvag-84" value="" style="endArrow=none;dashed=1;html=1;rounded=0;exitX=0.467;exitY=1.018;exitDx=0;exitDy=0;exitPerimeter=0;entryX=-0.003;entryY=0.341;entryDx=0;entryDy=0;entryPerimeter=0;" edge="1" parent="1" source="1ZcwwXlKoj_4XfmJDvag-80" target="1ZcwwXlKoj_4XfmJDvag-87">
          <mxGeometry width="50" height="50" relative="1" as="geometry">
            <mxPoint x="616" y="1600" as="sourcePoint" />
            <mxPoint x="616" y="1674" as="targetPoint" />
          </mxGeometry>
        </mxCell>
        <mxCell id="1ZcwwXlKoj_4XfmJDvag-85" value="" style="endArrow=none;dashed=1;html=1;rounded=0;entryX=0;entryY=0;entryDx=0;entryDy=0;exitX=0.472;exitY=0.99;exitDx=0;exitDy=0;exitPerimeter=0;" edge="1" parent="1" source="1ZcwwXlKoj_4XfmJDvag-80" target="1ZcwwXlKoj_4XfmJDvag-91">
          <mxGeometry width="50" height="50" relative="1" as="geometry">
            <mxPoint x="610" y="1590" as="sourcePoint" />
            <mxPoint x="626" y="1684" as="targetPoint" />
          </mxGeometry>
        </mxCell>
        <mxCell id="1ZcwwXlKoj_4XfmJDvag-86" value="&lt;font style=&quot;font-size: 18px;&quot;&gt;Docker&lt;/font&gt;" style="text;html=1;align=center;verticalAlign=middle;whiteSpace=wrap;rounded=0;" vertex="1" parent="1">
          <mxGeometry x="340" y="1520" width="70" height="30" as="geometry" />
        </mxCell>
        <mxCell id="1ZcwwXlKoj_4XfmJDvag-87" value="" style="rounded=1;whiteSpace=wrap;html=1;" vertex="1" parent="1">
          <mxGeometry x="720" y="1570" width="380" height="110" as="geometry" />
        </mxCell>
        <mxCell id="1ZcwwXlKoj_4XfmJDvag-88" value="MongoDB&amp;nbsp;&lt;div&gt;shard1-1&lt;/div&gt;" style="shape=cylinder3;whiteSpace=wrap;html=1;boundedLbl=1;backgroundOutline=1;size=15;" vertex="1" parent="1">
          <mxGeometry x="760" y="1595" width="100" height="70" as="geometry" />
        </mxCell>
        <mxCell id="1ZcwwXlKoj_4XfmJDvag-89" value="MongoDB&amp;nbsp;&lt;div&gt;shard1-2&lt;/div&gt;" style="shape=cylinder3;whiteSpace=wrap;html=1;boundedLbl=1;backgroundOutline=1;size=15;" vertex="1" parent="1">
          <mxGeometry x="870" y="1595" width="100" height="70" as="geometry" />
        </mxCell>
        <mxCell id="1ZcwwXlKoj_4XfmJDvag-90" value="MongoDB&amp;nbsp;&lt;div&gt;shard1-3&lt;/div&gt;" style="shape=cylinder3;whiteSpace=wrap;html=1;boundedLbl=1;backgroundOutline=1;size=15;" vertex="1" parent="1">
          <mxGeometry x="980" y="1595" width="100" height="70" as="geometry" />
        </mxCell>
        <mxCell id="1ZcwwXlKoj_4XfmJDvag-91" value="" style="rounded=1;whiteSpace=wrap;html=1;" vertex="1" parent="1">
          <mxGeometry x="720" y="1700" width="380" height="110" as="geometry" />
        </mxCell>
        <mxCell id="1ZcwwXlKoj_4XfmJDvag-92" value="MongoDB&amp;nbsp;&lt;div&gt;shard2-1&lt;/div&gt;" style="shape=cylinder3;whiteSpace=wrap;html=1;boundedLbl=1;backgroundOutline=1;size=15;" vertex="1" parent="1">
          <mxGeometry x="760" y="1724" width="100" height="70" as="geometry" />
        </mxCell>
        <mxCell id="1ZcwwXlKoj_4XfmJDvag-93" value="MongoDB&amp;nbsp;&lt;div&gt;shard2-2&lt;/div&gt;" style="shape=cylinder3;whiteSpace=wrap;html=1;boundedLbl=1;backgroundOutline=1;size=15;" vertex="1" parent="1">
          <mxGeometry x="870" y="1724" width="100" height="70" as="geometry" />
        </mxCell>
        <mxCell id="1ZcwwXlKoj_4XfmJDvag-94" value="MongoDB&amp;nbsp;&lt;div&gt;shard2-3&lt;/div&gt;" style="shape=cylinder3;whiteSpace=wrap;html=1;boundedLbl=1;backgroundOutline=1;size=15;" vertex="1" parent="1">
          <mxGeometry x="980" y="1724" width="100" height="70" as="geometry" />
        </mxCell>
        <mxCell id="1ZcwwXlKoj_4XfmJDvag-95" value="Shard 1" style="text;html=1;align=center;verticalAlign=middle;whiteSpace=wrap;rounded=0;" vertex="1" parent="1">
          <mxGeometry x="720" y="1565" width="60" height="30" as="geometry" />
        </mxCell>
        <mxCell id="1ZcwwXlKoj_4XfmJDvag-96" value="Shard 2" style="text;html=1;align=center;verticalAlign=middle;whiteSpace=wrap;rounded=0;" vertex="1" parent="1">
          <mxGeometry x="720" y="1700" width="60" height="30" as="geometry" />
        </mxCell>
        <mxCell id="1ZcwwXlKoj_4XfmJDvag-97" value="Redis" style="shape=cylinder3;whiteSpace=wrap;html=1;boundedLbl=1;backgroundOutline=1;size=15;" vertex="1" parent="1">
          <mxGeometry x="420" y="1600" width="100" height="70" as="geometry" />
        </mxCell>
        <mxCell id="1ZcwwXlKoj_4XfmJDvag-98" value="@Cash" style="rounded=1;whiteSpace=wrap;html=1;" vertex="1" parent="1">
          <mxGeometry x="220" y="1650" width="60" height="40" as="geometry" />
        </mxCell>
        <mxCell id="1ZcwwXlKoj_4XfmJDvag-99" style="edgeStyle=orthogonalEdgeStyle;rounded=0;orthogonalLoop=1;jettySize=auto;html=1;exitX=1;exitY=0.5;exitDx=0;exitDy=0;" edge="1" parent="1" source="1ZcwwXlKoj_4XfmJDvag-98" target="1ZcwwXlKoj_4XfmJDvag-97">
          <mxGeometry relative="1" as="geometry">
            <mxPoint x="260" y="1690" as="sourcePoint" />
            <mxPoint x="530" y="1690" as="targetPoint" />
            <Array as="points" />
          </mxGeometry>
        </mxCell>
        <mxCell id="1ZcwwXlKoj_4XfmJDvag-100" value="&lt;h1 style=&quot;margin-top: 0px;&quot;&gt;&lt;span style=&quot;color: rgba(0, 0, 0, 0.85); font-family: &amp;quot;YS Text&amp;quot;, sans-serif; font-size: 18px; white-space-collapse: preserve-breaks; background-color: rgb(255, 255, 255); font-weight: normal;&quot;&gt;Задание 5.&lt;/span&gt;&lt;/h1&gt;&lt;h1 style=&quot;margin-top: 0px; box-sizing: inherit; font-family: &amp;quot;YS Text&amp;quot;, sans-serif; padding-top: 0px; border-top: none; color: rgba(0, 0, 0, 0.85); background-color: rgb(255, 255, 255);&quot;&gt;&lt;font style=&quot;font-size: 12px; font-weight: normal;&quot;&gt;Service Discovery и балансировка с API Gateway&lt;/font&gt;&lt;/h1&gt;" style="text;html=1;whiteSpace=wrap;overflow=hidden;rounded=0;" vertex="1" parent="1">
          <mxGeometry x="330" y="1420" width="360" height="80" as="geometry" />
        </mxCell>
        <mxCell id="1ZcwwXlKoj_4XfmJDvag-101" value="API Gatetway" style="rounded=1;whiteSpace=wrap;html=1;" vertex="1" parent="1">
          <mxGeometry x="170" y="1520" width="120" height="60" as="geometry" />
        </mxCell>
        <mxCell id="1ZcwwXlKoj_4XfmJDvag-104" value="" style="shape=flexArrow;endArrow=classic;html=1;rounded=0;entryX=0.25;entryY=0;entryDx=0;entryDy=0;" edge="1" parent="1">
          <mxGeometry width="50" height="50" relative="1" as="geometry">
            <mxPoint x="229.5" y="1460" as="sourcePoint" />
            <mxPoint x="229.5" y="1520" as="targetPoint" />
            <Array as="points">
              <mxPoint x="229.5" y="1460" />
              <mxPoint x="229.5" y="1500" />
            </Array>
          </mxGeometry>
        </mxCell>
        <mxCell id="1ZcwwXlKoj_4XfmJDvag-105" value="" style="shape=flexArrow;endArrow=classic;html=1;rounded=0;entryX=0.25;entryY=0;entryDx=0;entryDy=0;" edge="1" parent="1">
          <mxGeometry width="50" height="50" relative="1" as="geometry">
            <mxPoint x="229.5" y="1585" as="sourcePoint" />
            <mxPoint x="229.5" y="1645" as="targetPoint" />
          </mxGeometry>
        </mxCell>
        <mxCell id="1ZcwwXlKoj_4XfmJDvag-106" value="Consul" style="rounded=1;whiteSpace=wrap;html=1;" vertex="1" parent="1">
          <mxGeometry x="30" y="1585" width="120" height="60" as="geometry" />
        </mxCell>
        <mxCell id="1ZcwwXlKoj_4XfmJDvag-109" value="" style="endArrow=classic;html=1;rounded=0;entryX=0.5;entryY=1;entryDx=0;entryDy=0;exitX=0;exitY=0.5;exitDx=0;exitDy=0;" edge="1" parent="1" source="1ZcwwXlKoj_4XfmJDvag-103" target="1ZcwwXlKoj_4XfmJDvag-106">
          <mxGeometry width="50" height="50" relative="1" as="geometry">
            <mxPoint x="40" y="1760" as="sourcePoint" />
            <mxPoint x="90" y="1710" as="targetPoint" />
          </mxGeometry>
        </mxCell>
        <mxCell id="1ZcwwXlKoj_4XfmJDvag-110" value="" style="endArrow=classic;html=1;rounded=0;entryX=0;entryY=0.5;entryDx=0;entryDy=0;exitX=0.5;exitY=0;exitDx=0;exitDy=0;" edge="1" parent="1" source="1ZcwwXlKoj_4XfmJDvag-106" target="1ZcwwXlKoj_4XfmJDvag-101">
          <mxGeometry width="50" height="50" relative="1" as="geometry">
            <mxPoint x="90" y="1585" as="sourcePoint" />
            <mxPoint x="140" y="1535" as="targetPoint" />
          </mxGeometry>
        </mxCell>
        <mxCell id="1ZcwwXlKoj_4XfmJDvag-111" value="" style="endArrow=none;dashed=1;html=1;rounded=0;" edge="1" parent="1">
          <mxGeometry width="50" height="50" relative="1" as="geometry">
            <mxPoint x="150" y="1630" as="sourcePoint" />
            <mxPoint x="200" y="1580" as="targetPoint" />
          </mxGeometry>
        </mxCell>
        <mxCell id="1ZcwwXlKoj_4XfmJDvag-112" value="Frontend" style="rounded=1;whiteSpace=wrap;html=1;" vertex="1" parent="1">
          <mxGeometry x="170" y="1400" width="120" height="60" as="geometry" />
        </mxCell>
        <mxCell id="1ZcwwXlKoj_4XfmJDvag-139" value="&lt;h1 style=&quot;margin-top: 0px;&quot;&gt;&lt;span style=&quot;color: rgba(0, 0, 0, 0.85); font-family: &amp;quot;YS Text&amp;quot;, sans-serif; font-size: 18px; white-space-collapse: preserve-breaks; background-color: rgb(255, 255, 255); font-weight: normal;&quot;&gt;Задание 6.&lt;/span&gt;&lt;/h1&gt;&lt;h1 style=&quot;margin-top: 0px;&quot;&gt;&lt;span style=&quot;background-color: rgb(255, 255, 255); color: rgba(0, 0, 0, 0.85); font-family: &amp;quot;YS Text&amp;quot;, sans-serif; font-weight: normal;&quot;&gt;&lt;font style=&quot;font-size: 24px;&quot;&gt;CDN&lt;/font&gt;&lt;/span&gt;&lt;/h1&gt;&lt;div&gt;&lt;span style=&quot;background-color: rgb(255, 255, 255); color: rgba(0, 0, 0, 0.85); font-family: &amp;quot;YS Text&amp;quot;, sans-serif; font-weight: normal;&quot;&gt;&lt;h1 style=&quot;margin: var(--size-900, calc(var(--base-unit, calc(1rem * var(--base-ratio, 1))) * 3)) 0 0; box-sizing: inherit;&quot;&gt;&lt;br&gt;&lt;/h1&gt;&lt;/span&gt;&lt;/div&gt;" style="text;html=1;whiteSpace=wrap;overflow=hidden;rounded=0;" vertex="1" parent="1">
          <mxGeometry x="335" y="1960" width="360" height="80" as="geometry" />
        </mxCell>
        <mxCell id="1ZcwwXlKoj_4XfmJDvag-141" value="" style="shape=flexArrow;endArrow=classic;html=1;rounded=0;entryX=0.25;entryY=0;entryDx=0;entryDy=0;" edge="1" parent="1">
          <mxGeometry width="50" height="50" relative="1" as="geometry">
            <mxPoint x="-390.71" y="2068" as="sourcePoint" />
            <mxPoint x="-390.71" y="2128" as="targetPoint" />
            <Array as="points">
              <mxPoint x="-390.71" y="2068" />
              <mxPoint x="-390.21" y="2088" />
              <mxPoint x="-390.71" y="2108" />
            </Array>
          </mxGeometry>
        </mxCell>
        <mxCell id="1ZcwwXlKoj_4XfmJDvag-147" value="Frontend" style="rounded=1;whiteSpace=wrap;html=1;" vertex="1" parent="1">
          <mxGeometry x="349" y="2130" width="120" height="60" as="geometry" />
        </mxCell>
        <mxCell id="1ZcwwXlKoj_4XfmJDvag-180" value="pymongo-api *" style="rounded=1;whiteSpace=wrap;html=1;" vertex="1" parent="1">
          <mxGeometry x="159" y="2630" width="120" height="110" as="geometry" />
        </mxCell>
        <mxCell id="1ZcwwXlKoj_4XfmJDvag-181" value="pymongo-api *" style="rounded=1;whiteSpace=wrap;html=1;" vertex="1" parent="1">
          <mxGeometry x="169" y="2614" width="120" height="110" as="geometry" />
        </mxCell>
        <mxCell id="1ZcwwXlKoj_4XfmJDvag-182" value="" style="rounded=0;whiteSpace=wrap;html=1;" vertex="1" parent="1">
          <mxGeometry x="339" y="2480" width="790" height="300" as="geometry" />
        </mxCell>
        <mxCell id="1ZcwwXlKoj_4XfmJDvag-183" value="MongoDB&amp;nbsp;&lt;div&gt;router&lt;/div&gt;" style="shape=cylinder3;whiteSpace=wrap;html=1;boundedLbl=1;backgroundOutline=1;size=15;" vertex="1" parent="1">
          <mxGeometry x="569" y="2625" width="100" height="70" as="geometry" />
        </mxCell>
        <mxCell id="1ZcwwXlKoj_4XfmJDvag-184" value="pymongo-api *" style="rounded=1;whiteSpace=wrap;html=1;" vertex="1" parent="1">
          <mxGeometry x="179" y="2605" width="120" height="110" as="geometry" />
        </mxCell>
        <mxCell id="1ZcwwXlKoj_4XfmJDvag-185" style="edgeStyle=orthogonalEdgeStyle;rounded=0;orthogonalLoop=1;jettySize=auto;html=1;exitX=1;exitY=0.5;exitDx=0;exitDy=0;entryX=0;entryY=0.5;entryDx=0;entryDy=0;entryPerimeter=0;" edge="1" parent="1" source="1ZcwwXlKoj_4XfmJDvag-184" target="1ZcwwXlKoj_4XfmJDvag-183">
          <mxGeometry relative="1" as="geometry" />
        </mxCell>
        <mxCell id="1ZcwwXlKoj_4XfmJDvag-186" value="MongoDB&amp;nbsp;&lt;div&gt;config&lt;/div&gt;" style="shape=cylinder3;whiteSpace=wrap;html=1;boundedLbl=1;backgroundOutline=1;size=15;" vertex="1" parent="1">
          <mxGeometry x="569" y="2490" width="100" height="70" as="geometry" />
        </mxCell>
        <mxCell id="1ZcwwXlKoj_4XfmJDvag-187" value="" style="endArrow=classic;html=1;rounded=0;exitX=1;exitY=0.5;exitDx=0;exitDy=0;exitPerimeter=0;entryX=0;entryY=0.75;entryDx=0;entryDy=0;" edge="1" parent="1" source="1ZcwwXlKoj_4XfmJDvag-183" target="1ZcwwXlKoj_4XfmJDvag-193">
          <mxGeometry width="50" height="50" relative="1" as="geometry">
            <mxPoint x="589" y="2620" as="sourcePoint" />
            <mxPoint x="729" y="2640" as="targetPoint" />
          </mxGeometry>
        </mxCell>
        <mxCell id="1ZcwwXlKoj_4XfmJDvag-188" value="" style="endArrow=classic;html=1;rounded=0;exitX=1;exitY=0.5;exitDx=0;exitDy=0;exitPerimeter=0;entryX=0;entryY=0.25;entryDx=0;entryDy=0;" edge="1" parent="1" source="1ZcwwXlKoj_4XfmJDvag-183" target="1ZcwwXlKoj_4XfmJDvag-197">
          <mxGeometry width="50" height="50" relative="1" as="geometry">
            <mxPoint x="679" y="2670" as="sourcePoint" />
            <mxPoint x="717" y="2637" as="targetPoint" />
          </mxGeometry>
        </mxCell>
        <mxCell id="1ZcwwXlKoj_4XfmJDvag-189" value="" style="endArrow=none;dashed=1;html=1;rounded=0;exitX=0.458;exitY=0.997;exitDx=0;exitDy=0;exitPerimeter=0;entryX=0.462;entryY=-0.008;entryDx=0;entryDy=0;entryPerimeter=0;" edge="1" parent="1" source="1ZcwwXlKoj_4XfmJDvag-186" target="1ZcwwXlKoj_4XfmJDvag-183">
          <mxGeometry width="50" height="50" relative="1" as="geometry">
            <mxPoint x="589" y="2620" as="sourcePoint" />
            <mxPoint x="639" y="2570" as="targetPoint" />
          </mxGeometry>
        </mxCell>
        <mxCell id="1ZcwwXlKoj_4XfmJDvag-190" value="" style="endArrow=none;dashed=1;html=1;rounded=0;exitX=0.467;exitY=1.018;exitDx=0;exitDy=0;exitPerimeter=0;entryX=-0.003;entryY=0.341;entryDx=0;entryDy=0;entryPerimeter=0;" edge="1" parent="1" source="1ZcwwXlKoj_4XfmJDvag-186" target="1ZcwwXlKoj_4XfmJDvag-193">
          <mxGeometry width="50" height="50" relative="1" as="geometry">
            <mxPoint x="625" y="2560" as="sourcePoint" />
            <mxPoint x="625" y="2634" as="targetPoint" />
          </mxGeometry>
        </mxCell>
        <mxCell id="1ZcwwXlKoj_4XfmJDvag-191" value="" style="endArrow=none;dashed=1;html=1;rounded=0;entryX=0;entryY=0;entryDx=0;entryDy=0;exitX=0.472;exitY=0.99;exitDx=0;exitDy=0;exitPerimeter=0;" edge="1" parent="1" source="1ZcwwXlKoj_4XfmJDvag-186" target="1ZcwwXlKoj_4XfmJDvag-197">
          <mxGeometry width="50" height="50" relative="1" as="geometry">
            <mxPoint x="619" y="2550" as="sourcePoint" />
            <mxPoint x="635" y="2644" as="targetPoint" />
          </mxGeometry>
        </mxCell>
        <mxCell id="1ZcwwXlKoj_4XfmJDvag-192" value="&lt;font style=&quot;font-size: 18px;&quot;&gt;Docker&lt;/font&gt;" style="text;html=1;align=center;verticalAlign=middle;whiteSpace=wrap;rounded=0;" vertex="1" parent="1">
          <mxGeometry x="349" y="2490" width="70" height="30" as="geometry" />
        </mxCell>
        <mxCell id="1ZcwwXlKoj_4XfmJDvag-193" value="" style="rounded=1;whiteSpace=wrap;html=1;" vertex="1" parent="1">
          <mxGeometry x="729" y="2530" width="380" height="110" as="geometry" />
        </mxCell>
        <mxCell id="1ZcwwXlKoj_4XfmJDvag-194" value="MongoDB&amp;nbsp;&lt;div&gt;shard1-1&lt;/div&gt;" style="shape=cylinder3;whiteSpace=wrap;html=1;boundedLbl=1;backgroundOutline=1;size=15;" vertex="1" parent="1">
          <mxGeometry x="769" y="2555" width="100" height="70" as="geometry" />
        </mxCell>
        <mxCell id="1ZcwwXlKoj_4XfmJDvag-195" value="MongoDB&amp;nbsp;&lt;div&gt;shard1-2&lt;/div&gt;" style="shape=cylinder3;whiteSpace=wrap;html=1;boundedLbl=1;backgroundOutline=1;size=15;" vertex="1" parent="1">
          <mxGeometry x="879" y="2555" width="100" height="70" as="geometry" />
        </mxCell>
        <mxCell id="1ZcwwXlKoj_4XfmJDvag-196" value="MongoDB&amp;nbsp;&lt;div&gt;shard1-3&lt;/div&gt;" style="shape=cylinder3;whiteSpace=wrap;html=1;boundedLbl=1;backgroundOutline=1;size=15;" vertex="1" parent="1">
          <mxGeometry x="989" y="2555" width="100" height="70" as="geometry" />
        </mxCell>
        <mxCell id="1ZcwwXlKoj_4XfmJDvag-197" value="" style="rounded=1;whiteSpace=wrap;html=1;" vertex="1" parent="1">
          <mxGeometry x="729" y="2660" width="380" height="110" as="geometry" />
        </mxCell>
        <mxCell id="1ZcwwXlKoj_4XfmJDvag-198" value="MongoDB&amp;nbsp;&lt;div&gt;shard2-1&lt;/div&gt;" style="shape=cylinder3;whiteSpace=wrap;html=1;boundedLbl=1;backgroundOutline=1;size=15;" vertex="1" parent="1">
          <mxGeometry x="769" y="2684" width="100" height="70" as="geometry" />
        </mxCell>
        <mxCell id="1ZcwwXlKoj_4XfmJDvag-199" value="MongoDB&amp;nbsp;&lt;div&gt;shard2-2&lt;/div&gt;" style="shape=cylinder3;whiteSpace=wrap;html=1;boundedLbl=1;backgroundOutline=1;size=15;" vertex="1" parent="1">
          <mxGeometry x="879" y="2684" width="100" height="70" as="geometry" />
        </mxCell>
        <mxCell id="1ZcwwXlKoj_4XfmJDvag-200" value="MongoDB&amp;nbsp;&lt;div&gt;shard2-3&lt;/div&gt;" style="shape=cylinder3;whiteSpace=wrap;html=1;boundedLbl=1;backgroundOutline=1;size=15;" vertex="1" parent="1">
          <mxGeometry x="989" y="2684" width="100" height="70" as="geometry" />
        </mxCell>
        <mxCell id="1ZcwwXlKoj_4XfmJDvag-201" value="Shard 1" style="text;html=1;align=center;verticalAlign=middle;whiteSpace=wrap;rounded=0;" vertex="1" parent="1">
          <mxGeometry x="729" y="2525" width="60" height="30" as="geometry" />
        </mxCell>
        <mxCell id="1ZcwwXlKoj_4XfmJDvag-202" value="Shard 2" style="text;html=1;align=center;verticalAlign=middle;whiteSpace=wrap;rounded=0;" vertex="1" parent="1">
          <mxGeometry x="729" y="2660" width="60" height="30" as="geometry" />
        </mxCell>
        <mxCell id="1ZcwwXlKoj_4XfmJDvag-203" value="Redis" style="shape=cylinder3;whiteSpace=wrap;html=1;boundedLbl=1;backgroundOutline=1;size=15;" vertex="1" parent="1">
          <mxGeometry x="429" y="2560" width="100" height="70" as="geometry" />
        </mxCell>
        <mxCell id="1ZcwwXlKoj_4XfmJDvag-204" value="@Cash" style="rounded=1;whiteSpace=wrap;html=1;" vertex="1" parent="1">
          <mxGeometry x="229" y="2610" width="60" height="40" as="geometry" />
        </mxCell>
        <mxCell id="1ZcwwXlKoj_4XfmJDvag-205" style="edgeStyle=orthogonalEdgeStyle;rounded=0;orthogonalLoop=1;jettySize=auto;html=1;exitX=1;exitY=0.5;exitDx=0;exitDy=0;" edge="1" parent="1" source="1ZcwwXlKoj_4XfmJDvag-204" target="1ZcwwXlKoj_4XfmJDvag-203">
          <mxGeometry relative="1" as="geometry">
            <mxPoint x="269" y="2650" as="sourcePoint" />
            <mxPoint x="539" y="2650" as="targetPoint" />
            <Array as="points" />
          </mxGeometry>
        </mxCell>
        <mxCell id="1ZcwwXlKoj_4XfmJDvag-206" value="API Gatetway" style="rounded=1;whiteSpace=wrap;html=1;" vertex="1" parent="1">
          <mxGeometry x="179" y="2480" width="120" height="60" as="geometry" />
        </mxCell>
        <mxCell id="1ZcwwXlKoj_4XfmJDvag-207" value="" style="shape=flexArrow;endArrow=classic;html=1;rounded=0;entryX=0.25;entryY=0;entryDx=0;entryDy=0;" edge="1" parent="1">
          <mxGeometry width="50" height="50" relative="1" as="geometry">
            <mxPoint x="238.5" y="2545" as="sourcePoint" />
            <mxPoint x="238.5" y="2605" as="targetPoint" />
          </mxGeometry>
        </mxCell>
        <mxCell id="1ZcwwXlKoj_4XfmJDvag-208" value="Consul" style="rounded=1;whiteSpace=wrap;html=1;" vertex="1" parent="1">
          <mxGeometry x="39" y="2545" width="120" height="60" as="geometry" />
        </mxCell>
        <mxCell id="1ZcwwXlKoj_4XfmJDvag-209" value="" style="endArrow=classic;html=1;rounded=0;entryX=0.5;entryY=1;entryDx=0;entryDy=0;exitX=0;exitY=0.5;exitDx=0;exitDy=0;" edge="1" parent="1" source="1ZcwwXlKoj_4XfmJDvag-180" target="1ZcwwXlKoj_4XfmJDvag-208">
          <mxGeometry width="50" height="50" relative="1" as="geometry">
            <mxPoint x="49" y="2720" as="sourcePoint" />
            <mxPoint x="99" y="2670" as="targetPoint" />
          </mxGeometry>
        </mxCell>
        <mxCell id="1ZcwwXlKoj_4XfmJDvag-210" value="" style="endArrow=classic;html=1;rounded=0;entryX=0;entryY=0.5;entryDx=0;entryDy=0;exitX=0.5;exitY=0;exitDx=0;exitDy=0;" edge="1" parent="1" source="1ZcwwXlKoj_4XfmJDvag-208" target="1ZcwwXlKoj_4XfmJDvag-206">
          <mxGeometry width="50" height="50" relative="1" as="geometry">
            <mxPoint x="99" y="2545" as="sourcePoint" />
            <mxPoint x="149" y="2495" as="targetPoint" />
          </mxGeometry>
        </mxCell>
        <mxCell id="1ZcwwXlKoj_4XfmJDvag-211" value="" style="endArrow=none;dashed=1;html=1;rounded=0;" edge="1" parent="1">
          <mxGeometry width="50" height="50" relative="1" as="geometry">
            <mxPoint x="159" y="2590" as="sourcePoint" />
            <mxPoint x="209" y="2540" as="targetPoint" />
          </mxGeometry>
        </mxCell>
        <mxCell id="1ZcwwXlKoj_4XfmJDvag-216" value="CDN" style="rounded=0;whiteSpace=wrap;html=1;" vertex="1" parent="1">
          <mxGeometry x="349" y="2290" width="120" height="60" as="geometry" />
        </mxCell>
        <mxCell id="1ZcwwXlKoj_4XfmJDvag-217" value="Redis" style="shape=cylinder3;whiteSpace=wrap;html=1;boundedLbl=1;backgroundOutline=1;size=15;" vertex="1" parent="1">
          <mxGeometry x="510" y="2285" width="100" height="70" as="geometry" />
        </mxCell>
        <mxCell id="1ZcwwXlKoj_4XfmJDvag-218" value="Frontend" style="rounded=1;whiteSpace=wrap;html=1;" vertex="1" parent="1">
          <mxGeometry x="500" y="2130" width="120" height="60" as="geometry" />
        </mxCell>
        <mxCell id="1ZcwwXlKoj_4XfmJDvag-220" value="&lt;span style=&quot;font-size: 18px;&quot;&gt;Регион 2&lt;/span&gt;" style="text;html=1;align=center;verticalAlign=middle;whiteSpace=wrap;rounded=0;" vertex="1" parent="1">
          <mxGeometry x="340" y="2081" width="110" height="30" as="geometry" />
        </mxCell>
        <mxCell id="1ZcwwXlKoj_4XfmJDvag-221" value="" style="endArrow=classic;html=1;rounded=0;exitX=0.5;exitY=1;exitDx=0;exitDy=0;entryX=0.5;entryY=0;entryDx=0;entryDy=0;" edge="1" parent="1" source="1ZcwwXlKoj_4XfmJDvag-147" target="1ZcwwXlKoj_4XfmJDvag-216">
          <mxGeometry width="50" height="50" relative="1" as="geometry">
            <mxPoint x="510" y="2290" as="sourcePoint" />
            <mxPoint x="560" y="2240" as="targetPoint" />
          </mxGeometry>
        </mxCell>
        <mxCell id="1ZcwwXlKoj_4XfmJDvag-222" value="" style="endArrow=classic;html=1;rounded=0;entryX=0.75;entryY=0;entryDx=0;entryDy=0;" edge="1" parent="1" source="1ZcwwXlKoj_4XfmJDvag-218" target="1ZcwwXlKoj_4XfmJDvag-216">
          <mxGeometry width="50" height="50" relative="1" as="geometry">
            <mxPoint x="419" y="2200" as="sourcePoint" />
            <mxPoint x="419" y="2300" as="targetPoint" />
          </mxGeometry>
        </mxCell>
        <mxCell id="1ZcwwXlKoj_4XfmJDvag-223" value="" style="endArrow=classic;html=1;rounded=0;exitX=1;exitY=0.5;exitDx=0;exitDy=0;" edge="1" parent="1" source="1ZcwwXlKoj_4XfmJDvag-216" target="1ZcwwXlKoj_4XfmJDvag-217">
          <mxGeometry width="50" height="50" relative="1" as="geometry">
            <mxPoint x="429" y="2210" as="sourcePoint" />
            <mxPoint x="429" y="2310" as="targetPoint" />
          </mxGeometry>
        </mxCell>
        <mxCell id="1ZcwwXlKoj_4XfmJDvag-224" value="" style="endArrow=classic;html=1;rounded=0;exitX=0.5;exitY=1;exitDx=0;exitDy=0;entryX=0.651;entryY=0.045;entryDx=0;entryDy=0;entryPerimeter=0;" edge="1" parent="1" source="1ZcwwXlKoj_4XfmJDvag-216" target="1ZcwwXlKoj_4XfmJDvag-206">
          <mxGeometry width="50" height="50" relative="1" as="geometry">
            <mxPoint x="479" y="2330" as="sourcePoint" />
            <mxPoint x="520" y="2330" as="targetPoint" />
          </mxGeometry>
        </mxCell>
        <mxCell id="1ZcwwXlKoj_4XfmJDvag-225" value="" style="whiteSpace=wrap;html=1;aspect=fixed;" vertex="1" parent="1">
          <mxGeometry y="2070" width="320" height="320" as="geometry" />
        </mxCell>
        <mxCell id="1ZcwwXlKoj_4XfmJDvag-226" value="Frontend" style="rounded=1;whiteSpace=wrap;html=1;" vertex="1" parent="1">
          <mxGeometry x="19" y="2130" width="120" height="60" as="geometry" />
        </mxCell>
        <mxCell id="1ZcwwXlKoj_4XfmJDvag-227" value="CDN" style="rounded=0;whiteSpace=wrap;html=1;" vertex="1" parent="1">
          <mxGeometry x="19" y="2290" width="120" height="60" as="geometry" />
        </mxCell>
        <mxCell id="1ZcwwXlKoj_4XfmJDvag-228" value="Redis" style="shape=cylinder3;whiteSpace=wrap;html=1;boundedLbl=1;backgroundOutline=1;size=15;" vertex="1" parent="1">
          <mxGeometry x="180" y="2285" width="100" height="70" as="geometry" />
        </mxCell>
        <mxCell id="1ZcwwXlKoj_4XfmJDvag-229" value="Frontend" style="rounded=1;whiteSpace=wrap;html=1;" vertex="1" parent="1">
          <mxGeometry x="170" y="2130" width="120" height="60" as="geometry" />
        </mxCell>
        <mxCell id="1ZcwwXlKoj_4XfmJDvag-230" value="&lt;span style=&quot;font-size: 18px;&quot;&gt;Регион 1&lt;/span&gt;" style="text;html=1;align=center;verticalAlign=middle;whiteSpace=wrap;rounded=0;" vertex="1" parent="1">
          <mxGeometry x="10" y="2081" width="110" height="30" as="geometry" />
        </mxCell>
        <mxCell id="1ZcwwXlKoj_4XfmJDvag-231" value="" style="endArrow=classic;html=1;rounded=0;exitX=0.5;exitY=1;exitDx=0;exitDy=0;entryX=0.5;entryY=0;entryDx=0;entryDy=0;" edge="1" parent="1" source="1ZcwwXlKoj_4XfmJDvag-226" target="1ZcwwXlKoj_4XfmJDvag-227">
          <mxGeometry width="50" height="50" relative="1" as="geometry">
            <mxPoint x="180" y="2290" as="sourcePoint" />
            <mxPoint x="230" y="2240" as="targetPoint" />
          </mxGeometry>
        </mxCell>
        <mxCell id="1ZcwwXlKoj_4XfmJDvag-232" value="" style="endArrow=classic;html=1;rounded=0;entryX=0.75;entryY=0;entryDx=0;entryDy=0;" edge="1" parent="1" source="1ZcwwXlKoj_4XfmJDvag-229" target="1ZcwwXlKoj_4XfmJDvag-227">
          <mxGeometry width="50" height="50" relative="1" as="geometry">
            <mxPoint x="89" y="2200" as="sourcePoint" />
            <mxPoint x="89" y="2300" as="targetPoint" />
          </mxGeometry>
        </mxCell>
        <mxCell id="1ZcwwXlKoj_4XfmJDvag-233" value="" style="endArrow=classic;html=1;rounded=0;exitX=1;exitY=0.5;exitDx=0;exitDy=0;" edge="1" parent="1" source="1ZcwwXlKoj_4XfmJDvag-227" target="1ZcwwXlKoj_4XfmJDvag-228">
          <mxGeometry width="50" height="50" relative="1" as="geometry">
            <mxPoint x="99" y="2210" as="sourcePoint" />
            <mxPoint x="99" y="2310" as="targetPoint" />
          </mxGeometry>
        </mxCell>
        <mxCell id="1ZcwwXlKoj_4XfmJDvag-234" value="" style="endArrow=classic;html=1;rounded=0;" edge="1" parent="1" source="1ZcwwXlKoj_4XfmJDvag-227" target="1ZcwwXlKoj_4XfmJDvag-206">
          <mxGeometry width="50" height="50" relative="1" as="geometry">
            <mxPoint x="419" y="2360" as="sourcePoint" />
            <mxPoint x="267" y="2493" as="targetPoint" />
          </mxGeometry>
        </mxCell>
      </root>
    </mxGraphModel>
  </diagram>
</mxfile>
